<?xml version="1.0" encoding="UTF-8" standalone="no"?>
<svg width="1023px" height="380px" viewBox="0 0 1023 380" version="1.1" xmlns="http://www.w3.org/2000/svg" xmlns:xlink="http://www.w3.org/1999/xlink">
    <!-- Generator: Sketch 40 (33762) - http://www.bohemiancoding.com/sketch -->
    <title>GrayBars</title>
    <desc>Created with Sketch.</desc>
    <defs>
        <linearGradient x1="50%" y1="0%" x2="50%" y2="100%" id="linearGradient-1">
            <stop stop-color="#C6C6C6" offset="0%"></stop>
            <stop stop-color="#939393" offset="100%"></stop>
        </linearGradient>
        <linearGradient x1="50%" y1="0%" x2="50%" y2="100%" id="linearGradient-2">
            <stop stop-color="#9C9C9C" offset="0%"></stop>
            <stop stop-color="#626262" offset="100%"></stop>
        </linearGradient>
        <linearGradient x1="50%" y1="0%" x2="50%" y2="100%" id="linearGradient-3">
            <stop stop-color="#D1D1D1" offset="0%"></stop>
            <stop stop-color="#A4A4A4" offset="100%"></stop>
        </linearGradient>
        <linearGradient x1="50%" y1="0%" x2="50%" y2="100%" id="linearGradient-4">
            <stop stop-color="#DFDFDF" offset="0%"></stop>
            <stop stop-color="#BBBBBB" offset="100%"></stop>
        </linearGradient>
        <linearGradient x1="50%" y1="0%" x2="50%" y2="100%" id="linearGradient-5">
            <stop stop-color="#B3B3B3" offset="0%"></stop>
            <stop stop-color="#7B7B7B" offset="100%"></stop>
        </linearGradient>
    </defs>
    <g id="Welcome" stroke="none" stroke-width="1" fill="none" fill-rule="evenodd">
        <g id="HOMEPAGEv2" transform="translate(-1.000000, -831.000000)">
            <g id="GrayBars" transform="translate(1.000000, 831.000000)">
                <g id="NAV/NavBar" transform="translate(512.000000, 44.000000) scale(1, -1) translate(-512.000000, -44.000000) translate(0.000000, 29.000000)" fill="url(#linearGradient-1)">
                    <rect id="Rectangle-7" x="0" y="0" width="1024" height="30"></rect>
                </g>
                <g id="NAV/NavBar-Copy" transform="translate(512.000000, 12.000000) scale(1, -1) translate(-512.000000, -12.000000) " fill="url(#linearGradient-2)">
                    <rect id="Rectangle-7" x="0" y="0" width="1024" height="24"></rect>
                </g>
                <rect id="Rectangle" fill="url(#linearGradient-3)" x="0" y="178.920455" width="1024" height="24"></rect>
                <rect id="Rectangle" fill="url(#linearGradient-4)" x="0" y="62" width="1024" height="65"></rect>
                <rect id="Rectangle-Copy-3" fill="url(#linearGradient-5)" x="0" y="139" width="1024" height="40"></rect>
                <rect id="Rectangle" fill="#D9D9D9" x="0" y="202.926136" width="1024" height="20"></rect>
                <rect id="Rectangle-Copy" fill="#E9E9E9" x="0" y="223" width="1024" height="10"></rect>
                <rect id="Rectangle-Copy-2" fill="#F0F0F0" x="0" y="233" width="1024" height="10"></rect>
                <rect id="Rectangle-Copy-4" fill="#F0F0F0" x="0" y="245" width="1024" height="10"></rect>
                <rect id="Rectangle-Copy-5" fill="#F6F6F6" x="0" y="260" width="1024" height="7"></rect>
                <rect id="Rectangle-Copy-6" fill="#7B7B7B" x="0" y="373" width="1024" height="7"></rect>
                <rect id="Rectangle-Copy-7" fill="#DFDFDF" x="0" y="369" width="1024" height="4"></rect>
            </g>
        </g>
    </g>
</svg>